# xmcd
# 
# Track frame offsets:
#     150
#     20472
#     58532
#     79967
#     111407
#     134155
#     154982
#     180780
#     195597
#     215437
#     250265
#     274457
#     303910
#     317232
# 
# Disc length: 4573
# 
# Revision: 0
# Processed by: cddbd v1.5.2PL0 Copyright (c) Steve Scherf et al.
# Submitted via: BonkEnc v1.0
# 
DISCID=cc11db0e
DTITLE=Buddy Guy - Buddy's Baddest
DYEAR=1998
DGENRE=Blues
TTITLE0=Damn Right I've Got The Blues
TTITLE1=Five Long Years
TTITLE2=Mustang Sally
TTITLE3=Rememberin' Stevie
TTITLE4=She's A Superstar
TTITLE5=Feels Like Rain
TTITLE6=She's Nineteen Years Old
TTITLE7=I Smell Trouble
TTITLE8=Someone Else Is Steppin' In (Slippin' Out, Slippin In)
TTITLE9=My Time After Awhile (live)
TTITLE10=Midnight Train
TTITLE11=Miss Ida B
TTITLE12=I Need Your Love So Bad
TTITLE13=Innocent man
EXTD=ID3G:   0
EXTT0=
EXTT1=
EXTT2=
EXTT3=
EXTT4=
EXTT5=
EXTT6=
EXTT7=
EXTT8=
EXTT9=
EXTT10=
EXTT11=
EXTT12=
EXTT13=
PLAYORDER=
